PathFileType	4	(X/Y/Z)	C:/Users/opensim2020/Desktop/walking_exp_matlab/subject03/subject03_trc/subject03_walking16_run_cyclic.trc																																																																																																																																																	
DataRate	CameraRate	NumFrames	NumMarkers	Units	OrigDataRate	OrigDataStartFrame	OrigNumFrames																																																																																																																																													
100	100	4	49	mm	100	251	67																																																																																																																																													
Frame#	Time	RKNE			RTOE			RWRB			LTHI			RELB			RFRM			RUPA			RASI			LTIB			RWRA			RTHI			LSHO			LTOE			RTIB			LWRA			CLAV			LASI			RSHO			RFHD			STRN			LHEE			RFIN			RBHD			LFRM			C7			LWRB			LFIN			LUPA			LBHD			LELB			RANK			RHEE			RBAK			LPSI			T10			LFHD			RPSI			LKNE			LANK			*39			*40			*41			*42			*43			*44			*45			*46			*47			*48		
		X1	Y1	Z1	X2	Y2	Z2	X3	Y3	Z3	X4	Y4	Z4	X5	Y5	Z5	X6	Y6	Z6	X7	Y7	Z7	X8	Y8	Z8	X9	Y9	Z9	X10	Y10	Z10	X11	Y11	Z11	X12	Y12	Z12	X13	Y13	Z13	X14	Y14	Z14	X15	Y15	Z15	X16	Y16	Z16	X17	Y17	Z17	X18	Y18	Z18	X19	Y19	Z19	X20	Y20	Z20	X21	Y21	Z21	X22	Y22	Z22	X23	Y23	Z23	X24	Y24	Z24	X25	Y25	Z25	X26	Y26	Z26	X27	Y27	Z27	X28	Y28	Z28	X29	Y29	Z29	X30	Y30	Z30	X31	Y31	Z31	X32	Y32	Z32	X33	Y33	Z33	X34	Y34	Z34	X35	Y35	Z35	X36	Y36	Z36	X37	Y37	Z37	X38	Y38	Z38	X39	Y39	Z39	X40	Y40	Z40	X41	Y41	Z41	X42	Y42	Z42	X43	Y43	Z43	X44	Y44	Z44	X45	Y45	Z45	X46	Y46	Z46	X47	Y47	Z47	X48	Y48	Z48	X49	Y49	Z49
																																																																																																																																																				
58	0.57	389.11243	443.75775	353.57474	364.90967	32.36345	276.78516	309.38666	848.16437	507.49008	257.15771	556.8913	75.44611	170.98238	1018.56146	549.95453	250.52437	923.19836	526.85266	180.05087	1113.60364	519.67377	282.19653	882.97253	359.88177	77.08823	345.55313	103.90712	322.20987	883.13678	467.20859	298.53818	598.45294	398.74368	277.86993	1329.46204	103.53012	-157.90865	180.61794	158.98747	322.80594	263.79431	347.20084	389.01511	942.38763	169.09012	315.22226	1279.09949	255.78717	296.79752	860.8949	126.35136	252.00861	1297.72034	408.08041	281.34753	1576.95313	320.45511	352.61871	1107.7406	246.88219	-162.13181	367.30917	171.9005	376.27841	827.87073	485.48972	179.78749	1495.24268	311.62122	336.42175	983.53583	66.22633	190.33153	1351.96667	244.63641	410.13101	922.76776	120.26028	458.21521	884.89795	179.68333	256.04584	1148.62427	6.05491	193.36449	1487.18823	181.97198	257.90234	1036.51208	-2.33165	230.89912	71.46487	291.95074	178.98508	46.6884	241.0811	126.80486	1180.17065	324.91391	134.47324	895.9267	158.54573	142.02374	1048.59534	224.47778	299.75406	1569.61926	188.49718	125.24167	917.17004	307.55341	264.57516	377.6293	101.87064	-126.05696	327.3064	135.72116	NaN	NaN	NaN	NaN	NaN	NaN	NaN	NaN	NaN	NaN	NaN	NaN	NaN	NaN	NaN	NaN	NaN	NaN	NaN	NaN	NaN	194.71417	1601.36316	226.77615	NaN	NaN	NaN	NaN	NaN	NaN
59	0.58	411.14093	438.90018	351.77155	364.75537	32.19068	276.83923	363.38504	845.95172	504.5672	302.11115	555.39673	74.34859	219.60072	1010.71173	550.35083	302.13943	917.6001	525.35724	222.5063	1105.85327	520.8114	312.26337	877.77069	360.60626	134.69612	342.88086	102.41325	373.03516	881.01306	463.33783	323.38	594.61957	398.50809	308.8158	1324.31262	102.51328	-93.4119	174.43372	154.18275	335.0564	260.20728	347.02335	410.4234	917.25177	157.48717	347.33539	1274.37537	256.02835	326.27145	855.77094	126.83202	286.00433	1292.85132	409.05215	314.14578	1572.67212	321.72708	383.19733	1102.80371	247.01285	-107.02645	360.23843	169.70259	430.15985	829.84698	480.61731	212.50043	1491.02905	313.505	357.32523	969.24493	58.861	223.88281	1349.20801	245.71161	429.89429	901.62799	106.15842	475.83093	855.23334	160.95615	280.61462	1143.6106	6.40483	225.2169	1482.92114	183.75826	279.32269	1030.75488	-3.27489	232.71754	71.7723	292.97476	179.1172	48.34635	242.41544	158.86766	1176.45984	326.38144	163.43034	892.32416	159.29106	171.97543	1045.67554	225.08563	331.8728	1565.42261	189.39839	155.25151	915.29181	308.30426	320.2731	377.12991	101.04684	-68.73324	321.71466	133.61378	NaN	NaN	NaN	NaN	NaN	NaN	NaN	NaN	NaN	NaN	NaN	NaN	NaN	NaN	NaN	NaN	NaN	NaN	NaN	NaN	NaN	227.09158	1597.04346	228.50816	NaN	NaN	NaN	NaN	NaN	NaN
60	0.59	430.51706	433.11551	351.02338	364.51602	32.05949	276.90744	418.03589	848.46405	499.92361	345.84619	556.0304	73.65857	266.87299	1005.91553	549.7937	353.37128	916.60773	522.75909	263.62222	1100.50903	521.38055	341.76617	874.31976	361.19421	192.75906	341.19315	101.00311	424.34805	883.55231	458.29697	348.86697	592.2782	398.95813	339.63226	1320.55737	102.1408	-26.45804	165.21274	150.66405	345.51025	255.83157	346.67786	429.55457	897.11926	144.46846	379.16687	1270.87415	256.33228	355.89508	852.64801	127.17273	320.1832	1289.79541	409.46176	346.94281	1569.02502	323.01917	413.83612	1098.89429	247.23137	-51.85868	349.87531	166.90904	484.78928	836.72003	474.31204	245.27527	1487.32141	315.1618	376.33713	959.26312	50.68253	256.89032	1346.88306	246.4883	447.6947	885.20422	91.31109	491.10498	831.61859	141.76935	304.0155	1140.80359	5.62477	257.20557	1479.54138	185.32069	299.06369	1028.03027	-6.39955	234.08466	72.2654	293.44614	178.88104	50.67959	243.5119	191.38129	1173.49939	328.14874	192.97177	890.06604	159.72508	202.26184	1043.44861	226.33401	363.96329	1562.00916	190.69151	184.96938	913.87115	308.47168	376.34305	379.11383	100.79124	-10.24349	313.64807	130.944	NaN	NaN	NaN	NaN	NaN	NaN	NaN	NaN	NaN	NaN	NaN	NaN	NaN	NaN	NaN	NaN	NaN	NaN	NaN	NaN	NaN	259.55984	1593.57959	230.39818	NaN	NaN	NaN	NaN	NaN	NaN
61	0.6	446.44031	425.40601	351.20334	364.30118	31.91444	277.04108	472.21057	855.05475	493.69995	388.31827	558.93689	73.42419	313.11279	1002.50159	549.15509	404.13626	919.26843	518.97107	303.75476	1097.1084	521.57935	371.65097	872.43555	361.7493	250.99908	339.81277	100.0433	475.4917	891.10394	452.64484	373.93491	589.71454	399.95499	370.3519	1318.35144	102.45602	43.0309	153.91132	149.08049	354.45828	251.5016	346.28082	446.77493	882.8667	130.7321	411.02921	1268.31677	256.50272	385.03763	851.79327	127.1087	354.03101	1288.54016	409.57034	379.77414	1566.41833	324.20923	444.67801	1096.22534	247.20724	3.66454	335.93286	163.86884	539.21265	848.38892	466.94034	278.12457	1484.58215	316.56833	394.4928	953.09222	41.77405	288.45477	1344.77722	247.02408	463.84683	873.95959	76.3234	503.8324	814.04736	123.20088	326.72687	1141.00903	4.21058	289.3822	1477.38159	186.55684	317.60886	1028.19458	-10.69862	235.03923	72.8642	293.54678	179.07774	52.93834	243.55957	224.23189	1171.55322	330.12753	222.91122	889.05981	160.23047	232.87732	1041.82031	227.79254	396.25259	1560.0188	191.4911	214.72739	912.67493	308.37143	432.14075	383.79074	101.36703	48.7798	302.22934	128.62424	NaN	NaN	NaN	NaN	NaN	NaN	NaN	NaN	NaN	NaN	NaN	NaN	NaN	NaN	NaN	NaN	NaN	NaN	NaN	NaN	NaN	292.2803	1591.13538	231.97581	NaN	NaN	NaN	NaN	NaN	NaN
